# xmcd
#
# Track frame offsets:
#	150
#	22729
#	43583
#	65944
#	89062
#	107138
#	132101
#	152271
#	176997
#	198484
#	223920
#
# Disc length: 3202 seconds
#
# Revision: 1
# Processed by: cddbd v1.5.2PL0 Copyright (c) Steve Scherf et al.
# Submitted via: audiograbber 1.83.01
#
DISCID=9f0c800b
DTITLE=Tommy Lee Cook - Outside looking in
DYEAR=2011
DGENRE=Blues
TTITLE0=What You Gone Do
TTITLE1=God's little Acre
TTITLE2=Take a Breath
TTITLE3=This Old Flame
TTITLE4=Grits and Groceries
TTITLE5=Devil on my Shoulder
TTITLE6=She got the Lool
TTITLE7=Ain't no Blame
TTITLE8=Arkansa Dirtweed
TTITLE9=The Truth about Lies
TTITLE10=It's a Party
EXTD=
EXTT0=
EXTT1=
EXTT2=
EXTT3=
EXTT4=
EXTT5=
EXTT6=
EXTT7=
EXTT8=
EXTT9=
EXTT10=
PLAYORDER=
